# xmcd
#
# Track frame offsets: 
#        150
#        67464
#        92926
#        113087
#        178307
#        208544
#        264702
#        268418
#        275148
#
# Disc length: 3712 seconds
#
# Revision: 0
# Processed by: cddbd v1.5.2PL0 Copyright (c) Steve Scherf et al.
# Submitted via: ExactAudioCopy v0.95b3
#
DISCID=9d0e7e09
DTITLE=Jimi Hendrix  - TTG Studios (ATM 180) - Disc 1
DYEAR=1900
DGENRE=
TTITLE0=Jam #5 - 12 Bar in E
TTITLE1=Jam #5 - 12 Bar in E
TTITLE2=I Just Wanna Make Love To You
TTITLE3=Jam #1 - 12 Bar Blues In D
TTITLE4=Jam #2 in D
TTITLE5=Jam #3
TTITLE6=Sunshine Of Your Love
TTITLE7=Jam #4 in D
TTITLE8=Sunshine Of Your Love
EXTD=
EXTT0=
EXTT1=
EXTT2=
EXTT3=
EXTT4=
EXTT5=
EXTT6=
EXTT7=
EXTT8=
PLAYORDER=
